<?xml version="1.0" encoding="UTF-8"?>
<svg width="80px" height="80px" viewBox="0 0 80 80" version="1.1" xmlns="http://www.w3.org/2000/svg" xmlns:xlink="http://www.w3.org/1999/xlink">
    <title>build</title>
    <g id="Page-1" stroke="none" stroke-width="1" fill="none" fill-rule="evenodd">
        <g id="1195-2" transform="translate(-404.000000, -1455.000000)">
            <g id="build" transform="translate(404.000000, 1455.000000)">
                <path d="M22.505,78.4 C16.495,78.4 11.605,73.51 11.605,67.5 C11.605,61.49 16.495,56.6 22.505,56.6 C24.3325,56.6 26.055,57.055 27.57,57.85 L32.8825,49.505 L34.4,50.4725 L29.0875,58.82 C31.7075,60.8125 33.405,63.9625 33.405,67.5025 C33.405,73.51 28.5175,78.4 22.505,78.4 Z M22.505,58.4 C17.4875,58.4 13.405,62.4825 13.405,67.5 C13.405,72.5175 17.4875,76.6 22.505,76.6 C27.5225,76.6 31.605,72.5175 31.605,67.5 C31.605,62.4825 27.525,58.4 22.505,58.4 Z M40.005,78.3875 C37.8525,78.3875 35.7,78.21 33.6125,77.8575 L33.91,76.08 C35.9,76.4175 37.9525,76.585 40.005,76.585 C51.625,76.585 62.2975,71.25 69.285,61.95 L70.725,63.03 C63.395,72.79 52.1975,78.3875 40.005,78.3875 Z M77.5,62.15 C77.345,62.15 77.185,62.1075 77.045,62.025 L62.0575,53.2625 C61.7825,53.1025 61.61,52.805 61.61,52.485 C61.61,52.165 61.78,51.87 62.0575,51.7075 L77.045,42.97 C77.3275,42.8075 77.6675,42.8075 77.9475,42.965 C78.225,43.125 78.4,43.425 78.4,43.745 L78.4,61.245 C78.4,61.5675 78.2275,61.865 77.945,62.025 C77.81,62.11 77.655,62.15 77.5,62.15 Z M64.2975,52.4875 L76.6,59.68 L76.6,45.3175 L64.2975,52.4875 Z M8.3625,61.7475 C6.9775,59.74 5.7775,57.585 4.8,55.3475 L6.45,54.625 C7.3825,56.76 8.5225,58.8125 9.8425,60.725 L8.3625,61.7475 Z M7.815,51.1925 C7.585,51.1925 7.355,51.105 7.18,50.93 L1.865,45.64 C1.695,45.47 1.6,45.24 1.6,45 C1.6,44.7625 1.695,44.5325 1.8625,44.3625 L7.1775,39.05 C7.53,38.6975 8.0975,38.6975 8.45,39.05 L13.755,44.3525 C13.925,44.52 14.0175,44.75 14.0175,44.99 C14.0175,45.23 13.925,45.4575 13.755,45.625 L8.45,50.9275 C8.275,51.1025 8.045,51.1925 7.815,51.1925 Z M3.775,44.9975 L7.815,49.0175 L11.8475,44.9875 L7.8175,40.9575 L3.775,44.9975 Z M21.9025,50.44 C20.0725,47.275 19.105,43.6625 19.105,39.9875 C19.105,30.44 25.555,22.115 34.79,19.7425 L35.2375,21.485 C26.8,23.6525 20.905,31.26 20.905,39.985 C20.905,43.3425 21.79,46.645 23.46,49.5325 L21.9025,50.44 Z M40.005,48.3875 C35.3725,48.3875 31.605,44.6175 31.605,39.9875 C31.605,35.6575 34.8975,32.0825 39.11,31.635 L39.11,17.4875 L40.91,17.4875 L40.91,31.635 C45.1175,32.09 48.405,35.66 48.405,39.9875 C48.405,44.62 44.635,48.3875 40.005,48.3875 Z M40.005,33.3875 C36.365,33.3875 33.405,36.35 33.405,39.9875 C33.405,43.6275 36.3675,46.5875 40.005,46.5875 C43.6425,46.5875 46.6025016,43.6275 46.6025016,39.9875 C46.605,36.35 43.645,33.3875 40.005,33.3875 Z M76.6025,37.5475 C75.5225,21.1475 63.4875,7.405 47.335,4.1225 L47.6925,2.3575 C64.64,5.8 77.2675,20.2225 78.4,37.43 L76.6025,37.5475 Z M60.0125,35.8875 C59.8575,35.8875 59.7025,35.8475 59.5625,35.7675 L53.065,32.0175 C52.7875,31.8575 52.6125,31.5575 52.6125,31.2375 L52.6125,23.7375 C52.6125,23.4175 52.785,23.1175 53.065,22.9575 L59.5625,19.2075 C59.84,19.05 60.1825,19.0475 60.46,19.2075 L66.955,22.9575 C67.2325,23.1175 67.4075,23.415 67.4075,23.7375 L67.4075,31.2375 C67.4075,31.5575 67.235,31.8575 66.955,32.0175 L60.46,35.7675 C60.3225,35.8475 60.1675,35.8875 60.0125,35.8875 Z M54.4175,30.7175 L60.0125,33.9475 L65.605,30.7175 L65.605,24.2575 L60.0125,21.0275 L54.4175,24.2575 C54.4175,24.2575 54.4175,30.7175 54.4175,30.7175 Z M39.995,10.9 C37.435,10.9 35.3525,8.81 35.3525,6.2375 C35.3525,3.68 37.435,1.6 39.995,1.6 C42.5625,1.6 44.6525,3.68 44.6525,6.2375 C44.65,8.8075 42.56,10.9 39.995,10.9 Z M39.995,3.4 C38.4275,3.4 37.15,4.6725 37.15,6.2375 C37.15,7.815 38.425,9.1 39.995,9.1 C41.57,9.1 42.85,7.815 42.85,6.2375 C42.85,4.6725 41.5675,3.4 39.995,3.4 Z M2.5875,38.37 C2.5675,38.37 2.545,38.37 2.525,38.3675 C2.03,38.33 1.6575,37.925 1.6925,37.43 C1.6925,37.43 1.695,37.3775 1.695,37.375 C1.735,36.88 2.1575,36.4925 2.6625,36.5475 C3.1575,36.585 3.5275,37.0175 3.49,37.515 C3.4525,37.985 3.055,38.37 2.5875,38.37 Z M6.5675,23.855 C6.4325,23.855 6.2975,23.825 6.17,23.7575 C5.7325,23.5325 5.5475,23.02 5.77,22.58 C5.7725,22.5725 5.8,22.52 5.805,22.51 C6.04,22.0725 6.5825,21.91 7.025,22.145 C7.4625,22.38 7.625,22.925 7.39,23.365 C7.225,23.6725 6.9,23.855 6.5675,23.855 Z M12.315,15.5775 C12.095,15.5775 11.875,15.5 11.705,15.34 C11.35,15.005 11.3125,14.465 11.6375,14.1025 C11.65,14.0925 11.695,14.045 11.7075,14.0325 C12.06,13.68 12.6275,13.68 12.98,14.0325 C13.3325,14.385 13.3325,14.9525 12.98,15.305 C12.8,15.485 12.555,15.5775 12.315,15.5775 Z M9.1675,19.5075 C8.9475,19.5075 8.7275,19.43 8.5575,19.27 C8.2025,18.935 8.165,18.395 8.49,18.0325 C8.5,18.02 8.545,17.9725 8.5575,17.9625 C8.91,17.61 9.4775,17.61 9.83,17.9625 C10.1825,18.315 10.1825,18.8825 9.83,19.235 C9.6525,19.415 9.4075,19.5075 9.1675,19.5075 Z M4.5775,28.5025 C4.3575,28.5025 4.1375,28.425 3.9675,28.265 C3.6125,27.93 3.575,27.39 3.9,27.0275 C3.91,27.015 3.955,26.9675 3.9675,26.9575 C4.32,26.605 4.8875,26.605 5.24,26.9575 C5.5925,27.31 5.5925,27.8775 5.24,28.23 C5.06,28.4075 4.8175,28.5025 4.5775,28.5025 Z M3.24,33.37 C3.02,33.37 2.8,33.2925 2.63,33.1325 C2.275,32.7975 2.2375,32.2575 2.5625,31.895 C2.5725,31.8825 2.6175,31.835 2.63,31.825 C2.9825,31.4725 3.55,31.4725 3.9025,31.825 C4.255,32.1775 4.255,32.745 3.9025,33.0975 C3.725,33.2775 3.48,33.37 3.24,33.37 Z M41.025,60.875 C40.805,60.875 40.585,60.7975 40.415,60.6375 C40.06,60.3025 40.0225,59.7625 40.3475,59.4 C40.3575,59.3875 40.4025,59.34 40.415,59.33 C40.7675,58.9775 41.335,58.9775 41.6875,59.33 C42.04,59.6825 42.04,60.25 41.6875,60.6025 C41.5075,60.7825 41.265,60.875 41.025,60.875 Z M46.0425,59.9575 C45.8225,59.9575 45.6025,59.88 45.4325,59.72 C45.0775,59.385 45.04,58.845 45.365,58.4825 C45.375,58.47 45.42,58.4225 45.4325,58.4125 C45.785,58.06 46.3525,58.06 46.705,58.4125 C47.0575,58.765 47.0575,59.3325 46.705,59.685 C46.525,59.865 46.2825,59.9575 46.0425,59.9575 Z M54.4925,54.7075 C54.2725,54.7075 54.0525,54.63 53.8825,54.47 C53.5275,54.135 53.49,53.595 53.815,53.2325 C53.825,53.22 53.87,53.1725 53.8825,53.1625 C54.235,52.81 54.8025,52.81 55.155,53.1625 C55.5075,53.515 55.5075,54.0825 55.155,54.435 C54.975,54.615 54.7325,54.7075 54.4925,54.7075 Z M59.355,45.965 C59.135,45.965 58.915,45.8875 58.745,45.7275 C58.39,45.3925 58.3525,44.8525 58.6775,44.49 C58.6875,44.4775 58.7325,44.43 58.745,44.42 C59.0975,44.0675 59.665,44.0675 60.0175,44.42 C60.37,44.7725 60.37,45.34 60.0175,45.6925 C59.84,45.8725 59.5975,45.965 59.355,45.965 Z M15.9375,12.1375 C15.69,12.1375 15.445,12.0325 15.265,11.83 C14.9325,11.4625 14.98,10.88 15.35,10.5475 C15.3725,10.5275 15.435,10.475 15.46,10.4575 C15.8625,10.165 16.425,10.255 16.7175,10.655 C17.01,11.0575 16.9225,11.62 16.52,11.9125 C16.3525,12.065 16.145,12.1375 15.9375,12.1375 Z M24.5,6.73 C24.15,6.73 23.8125,6.535 23.665,6.2025 C23.4725,5.7625 23.635,5.2575 24.0625,5.045 C24.0875,5.0325 24.16,4.9975 24.1875,4.99 C24.6525,4.8125 25.1725,5.0425 25.35,5.5075 C25.5275,5.9725 25.2975,6.4925 24.8325,6.67 C24.7275,6.71 24.6125,6.73 24.5,6.73 Z M20.07,9.1075 C19.72,9.1075 19.3825,8.9125 19.235,8.58 C19.04,8.14 19.2025,7.635 19.6325,7.4225 C19.6575,7.41 19.73,7.375 19.7575,7.3675 C20.2225,7.19 20.7425,7.42 20.92,7.885 C21.0975,8.35 20.8675,8.87 20.4025,9.0475 C20.295,9.0875 20.1825,9.1075 20.07,9.1075 Z M29.225,4.9575 C28.8375,4.9575 28.4675,4.715 28.3475,4.33 C28.2,3.855 28.445,3.3575 28.92,3.2125 L28.9675,3.1975 C29.435,3.0525 29.945,3.3175 30.0925,3.7925 C30.2375,4.2675 29.9725,4.7725 29.4975,4.9175 C29.4075,4.945 29.3175,4.9575 29.225,4.9575 Z M36.11,60.51 C36.0625,60.51 36.0175,60.505 35.97,60.4975 C35.9325,60.4925 35.8475,60.475 35.81,60.4625 C35.3325,60.3275 35.055,59.8275 35.1925,59.3525 C35.3275,58.875 35.8225,58.5925 36.305,58.735 C36.795,58.8075 37.1025,59.2625 37.0275,59.7525 C36.9575,60.1975 36.55,60.51 36.11,60.51 Z M50.6075,57.8525 C50.3025,57.8525 50.005,57.6975 49.835,57.415 C49.5775,56.9875 49.7175,56.435 50.1425,56.18 C50.5575,55.925 51.125,56.0425 51.3875,56.455 C51.6475,56.87 51.5525,57.4025 51.145,57.6725 C51.135,57.68 51.0825,57.715 51.07,57.7225 C50.925,57.81 50.7675,57.8525 50.6075,57.8525 Z M57.4875,50.6075 C57.315,50.6075 57.14,50.5575 56.99,50.455 C56.575,50.18 56.4625,49.62 56.7375,49.2075 C56.96,48.7575 57.495,48.615 57.93,48.83 C58.375,49.055 58.54,49.62 58.3175,50.065 C58.3,50.1 58.2575,50.175 58.2375,50.205 C58.065,50.4675 57.7775,50.6075 57.4875,50.6075 Z M60.005,40.9375 C59.5075,40.9375 59.105,40.535 59.105,40.0375 C59.105,39.54 59.5075,39.1125 60.005,39.1125 C60.5025,39.1125 60.905,39.49 60.905,39.9875 L60.905,40.0375 C60.905,40.535 60.5025,40.9375 60.005,40.9375 Z" id="build_1_" fill="#000000" fill-rule="nonzero"></path>
                <rect id="_Transparent_Rectangle" x="0" y="0" width="80" height="80"></rect>
            </g>
        </g>
    </g>
</svg>