<?xml version="1.0" encoding="UTF-8"?>
<svg width="80px" height="80px" viewBox="0 0 80 80" version="1.1" xmlns="http://www.w3.org/2000/svg" xmlns:xlink="http://www.w3.org/1999/xlink">
    <title>transform--01</title>
    <g id="Page-1" stroke="none" stroke-width="1" fill="none" fill-rule="evenodd">
        <g id="1195-2" transform="translate(-800.000000, -1455.000000)">
            <g id="transform--01" transform="translate(800.000000, 1455.000000)">
                <path d="M32.5,78.4 L2.5,78.4 C2.0025,78.4 1.6,77.9975 1.6,77.5 L1.6,47.5 C1.6,47.0025 2.0025,46.6 2.5,46.6 L32.5,46.6 C32.9975,46.6 33.4,47.0025 33.4,47.5 L33.4,77.5 C33.4,77.9975 32.9975,78.4 32.5,78.4 Z M3.4,76.6 L31.6,76.6 L31.6,48.4 L3.4,48.4 L3.4,76.6 Z M62.5,51.32 C62.1525,51.32 61.8225,51.1175 61.675,50.78 C61.4775,50.3225 61.685,49.7925 62.14,49.5925 C70.925,45.755 76.6,37.0825 76.6,27.4975 C76.6,14.21 65.79,3.3975 52.5,3.3975 C42.9175,3.3975 34.2425,9.075 30.405,17.8575 C30.2025,18.3125 29.6725,18.52 29.22,18.3225 C28.765,18.1225 28.555,17.5925 28.755,17.1375 C32.88,7.7 42.2,1.6 52.5,1.6 C66.7825,1.6 78.4,13.2175 78.4,27.5 C78.4,37.8 72.3,47.1225 62.86,51.245 C62.745,51.2975 62.62,51.32 62.5,51.32 Z M18.4,42.475 C18.4,41.9775 17.9975,41.575 17.5,41.575 C17.0025,41.575 16.6,41.9775 16.6,42.475 L16.6,42.5 C16.6,42.9975 17.0025,43.3875 17.5,43.3875 C17.9975,43.3875 18.4,42.9725 18.4,42.475 Z M42.7225,63.4 L42.67,63.4 C42.1725,63.4 41.77,62.9975 41.77,62.5 C41.77,62.0025 42.1725,61.6 42.67,61.6 C43.1675,61.6 43.595,62.0025 43.595,62.5 C43.595,62.9975 43.22,63.4 42.7225,63.4 Z M47.805,63.4 L47.7525,63.4 C47.255,63.4 46.8525,62.9975 46.8525,62.5 C46.8525,62.0025 47.255,61.6 47.7525,61.6 C48.25,61.6 48.6775,62.0025 48.6775,62.5 C48.6775,62.9975 48.3025,63.4 47.805,63.4 Z M52.605,61.9925 C52.275,61.9925 51.9575,61.81 51.8,61.495 C51.5775,61.05 51.7575,60.5075 52.2025,60.2875 C52.61,60.0125 53.145,60.1325 53.425,60.5525 C53.6975,60.965 53.5625,61.54 53.1475,61.815 C53.1175,61.835 53.0425,61.88 53.0075,61.8975 C52.8775,61.96 52.7425,61.9925 52.605,61.9925 Z M56.1475,58.4075 C55.975,58.4075 55.8,58.3575 55.65,58.255 C55.235,57.98 55.1225,57.42 55.3975,57.0075 C55.62,56.5575 56.1525,56.4125 56.59,56.63 C57.035,56.855 57.2,57.42 56.9775,57.865 C56.96,57.9 56.9175,57.975 56.8975,58.005 C56.7225,58.2675 56.4375,58.4075 56.1475,58.4075 Z M57.5,53.5525 C57.0025,53.5525 56.6,53.15 56.6,52.6525 C56.6,52.155 57.0025,51.7275 57.5,51.7275 C57.9975,51.7275 58.4,52.1025 58.4,52.6025 L58.4,52.655 C58.4,53.15 57.9975,53.5525 57.5,53.5525 Z M57.5,48.455 C57.0025,48.455 56.6,48.0525 56.6,47.555 C56.6,47.0575 57.0025,46.63 57.5,46.63 C57.9975,46.63 58.4,47.0075 58.4,47.5075 L58.4,47.5575 C58.4,48.0525 57.9975,48.455 57.5,48.455 Z M57.5,43.36 C57.0025,43.36 56.6,42.9575 56.6,42.46 C56.6,41.9625 57.0025,41.535 57.5,41.535 C57.9975,41.535 58.4,41.9125 58.4,42.41 L58.4,42.46 C58.4,42.9575 57.9975,43.36 57.5,43.36 Z M17.5,38.305 C17.0025,38.305 16.6,37.9275 16.6,37.43 L16.6,37.38 C16.6,36.8825 17.0025,36.48 17.5,36.48 C17.9975,36.48 18.4,36.8825 18.4,37.38 C18.4,37.8775 17.9975,38.305 17.5,38.305 Z M57.5,38.2625 C57.0025,38.2625 56.6,37.86 56.6,37.3625 C56.6,36.865 57.0025,36.4375 57.5,36.4375 C57.9975,36.4375 58.4,36.815 58.4,37.3125 L58.4,37.3625 C58.4,37.86 57.9975,38.2625 57.5,38.2625 Z M17.5,33.2075 C17.49,33.2075 17.4775,33.2075 17.4675,33.2075 C16.985,33.19 16.6025,32.8175 16.6025,32.3325 C16.6025,32.31 16.6025,32.235 16.605,32.2125 C16.645,31.72 17.0625,31.35 17.5725,31.385 C18.0675,31.4225 18.4375,31.855 18.4,32.3525 C18.3625,32.8225 17.97,33.2075 17.5,33.2075 Z M18.855,28.355 C18.705,28.355 18.555,28.3175 18.4175,28.2375 C17.9875,27.9875 17.83,27.4575 18.08,27.03 L18.105,26.985 C18.3575,26.5575 18.9125,26.4125 19.335,26.6625 C19.765,26.9125 19.91,27.465 19.66,27.8925 C19.4925,28.1825 19.175,28.355 18.855,28.355 Z M56.105,28.3225 C55.7875,28.3225 55.4775,28.1525 55.315,27.8525 C55.085,27.43 55.215,26.88 55.6275,26.63 C56.04,26.3825 56.5625,26.475 56.8275,26.88 C56.8425,26.9025 56.88,26.9675 56.895,26.99 C57.1325,27.425 56.97,27.9725 56.535,28.21 C56.4,28.2875 56.2525,28.3225 56.105,28.3225 Z M52.535,24.7675 C52.38,24.7675 52.225,24.7275 52.08,24.645 C51.65,24.395 51.485,23.83 51.735,23.4 C51.985,22.9725 52.5125,22.8125 52.9425,23.0625 L52.9875,23.0875 C53.4175,23.3375 53.56,23.89 53.31,24.32 C53.145,24.6075 52.8425,24.7675 52.535,24.7675 Z M47.685,23.4025 C47.665,23.4025 47.6425,23.4025 47.6225,23.4 C47.14,23.365 46.7425,22.955 46.76,22.47 C46.7775,21.965 47.3025,21.555 47.75,21.605 C48.245,21.64 48.62,22.07 48.585,22.5675 C48.55,23.04 48.155,23.4025 47.685,23.4025 Z M42.5875,23.4 C42.09,23.4 41.6625,22.9975 41.6625,22.5 C41.6625,22.0025 42.04,21.6 42.5375,21.6 L42.59,21.6 C43.0875,21.6 43.49,22.0025 43.49,22.5 C43.49,22.9975 43.085,23.4 42.5875,23.4 Z M37.4925,23.4 C36.995,23.4 36.5675,22.9975 36.5675,22.5 C36.5675,22.0025 36.945,21.6 37.4425,21.6 L37.4925,21.6 C37.99,21.6 38.3925,22.0025 38.3925,22.5 C38.3925,22.9975 37.9875,23.4 37.4925,23.4 Z M32.395,23.4 C31.8975,23.4 31.47,22.9975 31.47,22.5 C31.47,22.0025 31.8475,21.6 32.345,21.6 L32.3975,21.6 C32.895,21.6 33.2975,22.0025 33.2975,22.5 C33.2975,22.9975 32.8925,23.4 32.395,23.4 Z M38.425,62.5 C38.425,62.0025 38.0075,61.6 37.5125,61.6 C37.0175,61.6 36.6125,62.0025 36.6125,62.5 C36.6125,62.9975 37.015,63.4 37.5125,63.4 L37.5375,63.4 C38.0325,63.4 38.425,62.9975 38.425,62.5 Z M27.2625,23.4 C26.765,23.4 26.3375,22.9975 26.3375,22.5 C26.3375,22.0025 26.715,21.6 27.2125,21.6 L27.265,21.6 C27.7625,21.6 28.165,22.0025 28.165,22.5 C28.165,22.9975 27.76,23.4 27.2625,23.4 Z M22.445,24.8 C21.9475,24.8 21.52,24.3975 21.52,23.9 C21.52,23.4025 21.8975,23 22.395,23 L22.4475,23 C22.945,23 23.3475,23.4025 23.3475,23.9 C23.3475,24.3975 22.9425,24.8 22.445,24.8 Z M57.5,33.235 C57.0025,33.235 56.6,32.8325 56.6,32.335 C56.6,31.8375 57.0025,31.41 57.5,31.41 C57.9975,31.41 58.4,31.7875 58.4,32.285 L58.4,32.335 C58.4,32.8325 57.9975,33.235 57.5,33.235 Z" id="transform--01_1_" fill="#000000" fill-rule="nonzero"></path>
                <rect id="_Transparent_Rectangle" x="0" y="0" width="80" height="80"></rect>
            </g>
        </g>
    </g>
</svg>