<?xml version="1.0" encoding="UTF-8"?>
<svg width="80px" height="80px" viewBox="0 0 80 80" version="1.1" xmlns="http://www.w3.org/2000/svg" xmlns:xlink="http://www.w3.org/1999/xlink">
    <title>visual--insights</title>
    <g id="Page-1" stroke="none" stroke-width="1" fill="none" fill-rule="evenodd">
        <g id="1195-2" transform="translate(-1200.000000, -1455.000000)">
            <g id="visual--insights" transform="translate(1200.000000, 1455.000000)">
                <path d="M77.5,78.4 L62.5,78.4 C62.0025,78.4 61.6,77.9975 61.6,77.5 L61.6,70.9 L52.5,70.9 C52.0025,70.9 51.6,70.4975 51.6,70 L51.6,40.9 L43.4,40.9 L43.4,60 C43.4,60.4975 42.9975,60.9 42.5,60.9 L2.5,60.9 C2.0025,60.9 1.6,60.4975 1.6,60 L1.6,47.5025 C1.6,47.5 1.6,47.5 1.6,47.4975 L1.6,20 C1.6,19.5025 2.0025,19.1 2.5,19.1 L42.5,19.1 C42.9975,19.1 43.4,19.5025 43.4,20 L43.4,39.1 L51.5975,39.1 L51.5975,10 C51.5975,9.5025 52,9.1 52.4975,9.1 L65.1475,9.1 L69.22,2.05 C69.3825,1.77 69.6775,1.6 70,1.6 L70,1.6 C70.3225,1.6 70.6175,1.77 70.78,2.05 L79.44,17.05 C79.6,17.3275 79.6,17.6725 79.44,17.95 C79.28,18.2275 78.9825,18.4 78.66,18.4 L61.3375,18.4 C61.015,18.4 60.72,18.23 60.5575,17.95 C60.3975,17.67 60.3975,17.3275 60.5575,17.05 L64.1075,10.9 L53.4,10.9 L53.4,39.1 L61.6475,39.1 C62.0975,34.89 65.67,31.6 70,31.6 C74.6325,31.6 78.4,35.3675 78.4,40 C78.4,44.6325 74.63,48.4 70,48.4 C65.6725,48.4 62.0975,45.11 61.6475,40.9 L53.4,40.9 L53.4,69.1 L61.5975,69.1 L61.5975,62.5 C61.5975,62.0025 62,61.6 62.4975,61.6 L77.4975,61.6 C77.995,61.6 78.3975,62.0025 78.3975,62.5 L78.3975,77.5 C78.4,77.9975 77.9975,78.4 77.5,78.4 Z M63.4,76.6 L76.5975,76.6 L76.5975,63.4 L63.4,63.4 L63.4,76.6 Z M3.4,59.1 L41.6,59.1 L41.6,52.875 L32.5,43.7725 L28.135,48.1375 C27.7825,48.49 27.215,48.49 26.8625,48.1375 L15,36.2725 L3.4,47.8725 C3.4,47.8725 3.4,59.1 3.4,59.1 Z M32.5,41.6 C32.73,41.6 32.96,41.6875 33.135,41.8625 L41.6,50.325 L41.6,20.9 L3.4,20.9 L3.4,45.3275 L14.365,34.365 C14.7175,34.0125 15.285,34.0125 15.6375,34.365 L27.5,46.2275 L31.865,41.8625 C32.04,41.6875 32.27,41.6 32.5,41.6 Z M70,33.4 C66.36,33.4 63.4,36.3625 63.4,40 C63.4,43.64 66.36,46.6 70,46.6 C73.64,46.6 76.6,43.64 76.6,40 C76.6,36.36 73.64,33.4 70,33.4 Z M62.8975,16.6 L77.1025,16.6 L70,4.3 L66.4575,10.4375 C66.4525,10.4475 66.445,10.455 66.44,10.465 L62.8975,16.6 Z M28.75,35.8975 C26.1875,35.8975 24.1,33.8125 24.1,31.2475 C24.1,28.6825 26.185,26.5975 28.75,26.5975 C31.315,26.5975 33.4,28.6825 33.4,31.2475 C33.4,33.8125 31.3125,35.8975 28.75,35.8975 Z M28.75,28.3975 C27.18,28.3975 25.9,29.6775 25.9,31.2475 C25.9,32.8175 27.18,34.0975 28.75,34.0975 C30.32,34.0975 31.6,32.8175 31.6,31.2475 C31.6,29.6775 30.32,28.3975 28.75,28.3975 Z" id="visual--insights_1_" fill="#000000" fill-rule="nonzero"></path>
                <rect id="_Transparent_Rectangle" x="0" y="0" width="80" height="80"></rect>
            </g>
        </g>
    </g>
</svg>